<?xml version="1.0" encoding="utf-8"?>
<!-- Generator: Adobe Illustrator 28.0.0, SVG Export Plug-In . SVG Version: 6.00 Build 0)  -->
<svg version="1.1" id="_레이어_1" xmlns="http://www.w3.org/2000/svg" xmlns:xlink="http://www.w3.org/1999/xlink" x="0px"
	 y="0px" viewBox="0 0 1000 500" style="enable-background:new 0 0 1000 500;" xml:space="preserve">
<style type="text/css">
	.st0{fill:#F3F3F4;}
</style>
<g>
	<path class="st0" d="M336.4,245.6c-47.5-2.9-87.1-2.5-114.5,0.9c-3.7,0.5-6.9,1.9-9.4,4.3c-2.6,2.5-4,5.5-4,8.9v1.9
		c0,3,0.3,5.1,1,6.5c1.1,2.6,3.1,4.8,5.8,6.4c2.7,1.6,5.7,2.4,9,2.4c0.9,0,1.6-0.1,2.3-0.2c11-1.3,24.6-2.1,40.3-2.3
		c0.2,3.5,0.3,7,0.4,10.3c-3,0.2-6.2,0.4-9.7,0.6c-4,0.4-7.4,2.1-10.2,5c-2.9,3-4.3,6.6-4.3,10.8s1.6,8.2,4.6,11.2
		c3.1,3,6.8,4.6,11.2,4.6h1c4.2-0.3,8.1-0.5,11.7-0.7l-18.6,7.6c-5.1,2-9.2,5.2-12.2,9.6c-3,4.4-4.6,9.3-4.6,14.6
		c0,7.4,2.7,13.7,8,18.7c5.2,5,11.6,7.5,19,7.5h0.3l44.6-2.4c4-0.2,7.5-1.9,10.5-4.9c2.9-3,4.4-6.7,4.4-10.9s-1.5-8.2-4.6-11.2
		c-3-3-6.8-4.6-11.2-4.6l-12.1,0.7l6.2-2.5c5.6-2.3,10.1-5.9,13.4-10.6c3.3-4.8,5-10,5-15.7c0-8-3-14.7-8.8-20.1
		c-3.5-3.2-7.4-5.4-11.7-6.7c0-3.8-0.1-7.3-0.2-10.6c11.1,0.2,23,0.7,35.5,1.5h0.8c4.3,0,8-1.2,11-3.6c3.2-2.5,4.8-5.8,4.8-9.5v-2.1
		c0-3.5-1.4-6.8-4.2-9.9C344,247.7,340.5,245.9,336.4,245.6L336.4,245.6z"/>
	<path class="st0" d="M239.1,229.4c2.9,2.2,6.6,3.3,10.8,3.3s8-1.2,11.1-3.5c5.6-4.4,11.1-8.9,16.2-13.5c1.3,0.6,2.6,1.2,3.8,1.9
		c7.2,3.6,12.9,7.1,16.8,10.3l0,0c3.1,2.5,7,3.8,11.4,3.8c5.5,0,9.9-1.7,13-5.1c1.8-2,2.8-4.7,2.8-8.1v-2.1c0-5.2-1.5-9-4.4-11.3
		c-5.5-4.5-12.9-9.1-22.2-13.8c1.4-2.1,2.6-4.2,3.6-6.2l0.2-0.4c0.4-1.4,0.6-3,0.6-5v-2.1c0-4.7-1-8-3.2-10.3
		c-3.1-3-7.4-4.5-12.6-4.5c-3.2,0-6.2,0.7-8.9,2.1c-2.8,1.5-4.8,3.4-5.9,5.7c-3,6.4-9.6,14.2-19.4,23.3c-4.4,4.1-9.3,8.2-14.9,12.3
		c-2.7,2.3-4.1,5.5-4.1,9.4v1.9c0,1.9,0.4,3.9,1.2,6.3C236.2,226.4,237.5,228.3,239.1,229.4L239.1,229.4z"/>
	<g>
		<path class="st0" d="M402.2,224.2c4.1-0.2,7.7-1.5,10.6-3.9c3.2-2.6,4.8-5.7,4.8-9.3c0-3.9-0.1-5.2-0.3-5.9
			c-0.5-3.3-2.3-6-5.2-8.2c-2.9-2.1-6.4-3.1-10.2-3.1h-2.1c-8.9,0-17.3-0.5-25-1.5l-0.3,0c-0.8,0-1.1-0.1-1.1-0.1l0,0
			c0,0-0.4-0.2-1.2-1.2c-0.6-0.8-1.2-2-1.7-3.8c-0.8-2.4-1.2-4.7-1.2-6.7c0-3.1,0.3-6.4,1-10.1c0.2-1.6,1.1-3,2.6-4.1
			c1.6-1.2,3.5-1.8,5.9-1.8c4-0.1,8-0.2,11.9-0.2c1.2,0,3.1,0,5.7,0.1c2.6,0.1,4.5,0.1,5.8,0.1h0.5c4.1,0,7.7-1.2,10.8-3.6
			c3.2-2.6,4.8-5.8,4.8-9.5v-2.1c0-3.6-1.5-7-4.4-10.1s-6.5-4.8-10.5-4.9c-7.5-0.3-16.2-0.3-25.4,0c-9.9,0.1-18.6,3-26,8.4
			c-7.4,5.5-11.9,12.4-13.2,20.6c-0.7,5.1-1.1,9.9-1.1,14.4c0,8.7,0.6,15.2,2,20.1c1.3,4.6,3.3,8.5,5.9,11.8
			c2.6,3.3,5.5,5.9,8.7,7.7c3,1.7,5.9,3,8.4,3.8c2.6,0.9,5.4,1.4,8.1,1.5c9.6,1,19.4,1.6,29,1.7L402.2,224.2L402.2,224.2z"/>
		<path class="st0" d="M435.5,241.2l-47.7,2.7c-4.1,0.4-7.7,2.1-10.6,5c-3,3-4.5,6.6-4.5,10.8c0,4.2,1.6,8.2,4.8,11.2
			c3.1,3,6.9,4.6,11.1,4.6l45.7-2.6l-0.2,18v0.3c0,4.2,1.5,7.9,4.4,11c3,3.2,6.7,4.8,11.1,4.8h0.3c4.2,0,7.9-1.5,11-4.6
			c3-3,4.6-6.7,4.9-10.9L466,272v-0.3c0-8.3-3-15.5-8.8-21.5C451.3,244.3,444,241.2,435.5,241.2L435.5,241.2z"/>
		<path class="st0" d="M507.6,169.5c-2.5-3-5.8-4.8-9.6-5.4c-8.9-1.2-18.7-1.8-29.3-1.9c0.6-6.3,1.4-11.9,2.3-16.7
			c0.2-0.8,0.3-1.5,0.3-2.3v-2.1c0-2.8-1-5.6-2.8-8.4c-1.9-2.9-4.3-4.8-7.2-5.7c-2-0.6-4.1-1-6.1-1c-3.7,0-7,1-9.8,3
			c-2.9,2.1-4.7,4.6-5.4,7.7c-2.7,13-4,30.4-4,51.4c0,9.9,0.2,19.1,0.5,27.3c0,3.6,1.6,6.7,4.8,9.2c3,2.3,6.6,3.5,10.7,3.5h0.3
			c4.3,0,8-1.2,11-3.6c3.2-2.6,4.8-5.8,4.8-9.5v-0.2c0-2.9-0.1-6.7-0.3-11.8c-0.2-4.8-0.3-8.3-0.3-10.4c9.2,0.1,17.7,0.6,25.4,1.7
			l2.5,0c3.5,0,6.6-0.8,9.4-2.5c2.9-1.7,4.9-4.1,5.7-6.9c0.5-1.3,0.7-2.6,0.7-3.8V179C511.3,175.7,510.1,172.5,507.6,169.5
			L507.6,169.5z"/>
	</g>
</g>
<g>
	<path class="st0" d="M616.5,245.6c-47.5-2.9-87.1-2.5-114.5,0.9c-3.7,0.5-6.9,1.9-9.4,4.3c-2.6,2.5-4,5.5-4,8.9v1.9
		c0,3,0.3,5.1,1,6.5c1.1,2.6,3.1,4.8,5.8,6.4c2.7,1.6,5.7,2.4,9,2.4c0.9,0,1.6-0.1,2.3-0.2c11-1.3,24.6-2.1,40.3-2.3
		c0.2,3.5,0.3,7,0.4,10.3c-3,0.2-6.2,0.4-9.7,0.6c-4,0.4-7.4,2.1-10.2,5c-2.8,3-4.3,6.6-4.3,10.8s1.5,8.2,4.6,11.2
		c3,3,6.8,4.6,11.2,4.6h1c4.2-0.3,8.1-0.5,11.7-0.7l-18.6,7.6c-5.1,2-9.2,5.2-12.2,9.6c-3,4.4-4.6,9.3-4.6,14.6
		c0,7.4,2.7,13.7,8,18.7c5.2,5,11.7,7.5,19,7.5h0.3l44.6-2.4c4-0.2,7.5-1.9,10.5-4.9c2.9-3,4.4-6.7,4.4-10.9s-1.5-8.2-4.6-11.2
		c-3-3-6.8-4.6-11.2-4.6l-12.1,0.7l6.2-2.5c5.6-2.3,10.1-5.9,13.3-10.6c3.3-4.8,5-10,5-15.7c0-8-3-14.7-8.8-20.1
		c-3.5-3.2-7.4-5.4-11.7-6.7c0-3.8-0.1-7.3-0.2-10.6c11.1,0.2,23,0.7,35.5,1.5h0.8c4.3,0,8-1.2,11-3.6c3.2-2.5,4.8-5.8,4.8-9.5v-2.1
		c0-3.5-1.4-6.8-4.2-9.9C624.1,247.7,620.6,245.9,616.5,245.6L616.5,245.6z"/>
	<path class="st0" d="M519.2,229.4c2.9,2.2,6.5,3.3,10.8,3.3s8-1.2,11.1-3.5c5.7-4.4,11.1-8.9,16.2-13.5c1.3,0.6,2.6,1.2,3.8,1.9
		c7.2,3.6,12.9,7.1,16.8,10.3l0,0c3.1,2.5,7,3.8,11.4,3.8c5.5,0,9.9-1.7,13-5.1c1.8-2,2.8-4.7,2.8-8.1v-2.1c0-5.2-1.5-9-4.4-11.3
		c-5.5-4.5-12.9-9.1-22.2-13.8c1.3-2.1,2.6-4.2,3.6-6.2l0.2-0.4c0.4-1.4,0.7-3,0.7-5v-2.1c0-4.7-1-8-3.2-10.3
		c-3.1-3-7.4-4.5-12.7-4.5c-3.2,0-6.2,0.7-8.9,2.1c-2.8,1.5-4.8,3.4-5.9,5.7c-3,6.4-9.6,14.2-19.4,23.3c-4.4,4.1-9.3,8.2-14.8,12.3
		c-2.7,2.3-4.1,5.5-4.1,9.4v1.9c0,1.9,0.4,3.9,1.2,6.3C516.3,226.4,517.6,228.3,519.2,229.4L519.2,229.4z"/>
	<g>
		<path class="st0" d="M682.3,224.2c4.1-0.2,7.7-1.5,10.7-3.9c3.2-2.6,4.8-5.7,4.8-9.3c0-3.9-0.1-5.2-0.3-5.9
			c-0.5-3.3-2.3-6-5.2-8.2c-2.9-2.1-6.3-3.1-10.2-3.1h-2.1c-8.9,0-17.3-0.5-25-1.5l-0.3,0c-0.8,0-1.1-0.1-1.1-0.1l0,0
			c0,0-0.4-0.2-1.2-1.2c-0.7-0.8-1.2-2-1.7-3.8c-0.8-2.4-1.2-4.7-1.2-6.7c0-3.1,0.3-6.4,1-10.1c0.2-1.6,1.1-3,2.7-4.1
			c1.6-1.2,3.5-1.8,5.9-1.8c4-0.1,8-0.2,11.9-0.2c1.2,0,3.1,0,5.7,0.1c2.6,0.1,4.5,0.1,5.8,0.1h0.5c4.1,0,7.7-1.2,10.8-3.6
			c3.2-2.6,4.8-5.8,4.8-9.5v-2.1c0-3.6-1.5-7-4.4-10.1s-6.5-4.8-10.5-4.9c-7.5-0.3-16.2-0.3-25.4,0c-9.9,0.1-18.6,3-26,8.4
			c-7.4,5.5-11.9,12.4-13.2,20.6c-0.7,5.1-1.1,9.9-1.1,14.4c0,8.7,0.6,15.2,2,20.1c1.3,4.6,3.3,8.5,5.9,11.8
			c2.6,3.3,5.5,5.9,8.7,7.7c3,1.7,5.9,3,8.4,3.8c2.6,0.9,5.4,1.4,8.1,1.5c9.6,1,19.4,1.6,29,1.7L682.3,224.2L682.3,224.2z"/>
		<path class="st0" d="M715.6,241.2l-47.7,2.7c-4.1,0.4-7.7,2.1-10.6,5c-3,3-4.5,6.6-4.5,10.8c0,4.2,1.6,8.2,4.8,11.2
			c3.1,3,6.8,4.6,11.1,4.6l45.7-2.6l-0.2,18v0.3c0,4.2,1.5,7.9,4.4,11c3,3.2,6.7,4.8,11.2,4.8h0.3c4.2,0,7.9-1.5,11-4.6
			c3-3,4.7-6.7,4.9-10.9l0.3-19.5v-0.3c0-8.3-3-15.5-8.8-21.5C731.4,244.3,724.1,241.2,715.6,241.2L715.6,241.2z"/>
		<path class="st0" d="M787.7,169.5c-2.5-3-5.8-4.8-9.6-5.4c-8.9-1.2-18.7-1.8-29.3-1.9c0.7-6.3,1.4-11.9,2.3-16.7
			c0.2-0.8,0.3-1.5,0.3-2.3v-2.1c0-2.8-1-5.6-2.8-8.4c-1.9-2.9-4.3-4.8-7.2-5.7c-2-0.6-4.1-1-6.1-1c-3.7,0-7,1-9.8,3
			c-2.9,2.1-4.7,4.6-5.4,7.7c-2.7,13-4,30.4-4,51.4c0,9.9,0.2,19.1,0.5,27.3c0,3.6,1.6,6.7,4.8,9.2c3,2.3,6.6,3.5,10.7,3.5h0.3
			c4.3,0,8-1.2,11-3.6c3.2-2.6,4.8-5.8,4.8-9.5v-0.2c0-2.9-0.1-6.7-0.3-11.8c-0.2-4.8-0.3-8.3-0.3-10.4c9.2,0.1,17.7,0.6,25.4,1.7
			l2.5,0c3.5,0,6.6-0.8,9.4-2.5c2.9-1.7,4.9-4.1,5.7-6.9c0.5-1.3,0.7-2.6,0.7-3.8V179C791.5,175.7,790.2,172.5,787.7,169.5
			L787.7,169.5z"/>
	</g>
</g>
</svg>
